# xmcd
#
# Track frame offsets: 
#        150
#        12555
#        21915
#        32180
#        43063
#        52830
#        63133
#        77228
#        88155
#        98150
#        108000
#        120360
#        130345
#        139845
#        152108
#        160680
#        169173
#        179048
#        189035
#        199268
#        209105
#        220513
#        228885
#        239283
#        250590
#        261200
#
# Disc length: 3616 seconds
#
# Revision: 3
# Processed by: cddbd v1.5.2PL0 Copyright (c) Steve Scherf et al.
# Submitted via: ExactAudioCopyFreeDBPlugin 1.0
#
DISCID=610e1e1a
DTITLE=Various Artist - The Specialty Story [box set]
DYEAR=1994
DGENRE=Rhythm and Blues
TTITLE0=Clydie King - Our Romance
TTITLE1=Little Richard - Jenny Jenny
TTITLE2=Little Richard - Miss Ann
TTITLE3=Larry Williams - Short Fat Fannie
TTITLE4=Don and Dewey - Leavin' it All Up to You
TTITLE5=Little Richard - Keep A-Knockin'
TTITLE6=Larry Williams - Bony Moronie
TTITLE7=Rene Hall's Orchestra - Twitchy (ft Willie Joe)
TTITLE8=Sam Cooke - I'll Come Running Back to You
TTITLE9=Little Richard - Good Golly, Miss Molly
TTITLE10=Larry Williams - Slow Down
TTITLE11=Larry Williams - Dizzy, Miss Lizzy
TTITLE12=Don and Dewey - Justine
TTITLE13=Little Richard - True Fine Mama
TTITLE14=Little Richard - Ooh! My Soul
TTITLE15=Jerry Byrne - Lights Out
TTITLE16=The Soul Stirrers - The Love of God (ft Johnnie Taylor)
TTITLE17=Don and Dewey - Koko Joe
TTITLE18=Little Richard - Baby Face
TTITLE19=Roddy Jackson - There's a Moose on the Loose
TTITLE20=Johnny Fuller - Haunted House
TTITLE21=Larry Williams - She Said Yeah
TTITLE22=Larry Williams - Bad Boy
TTITLE23=Don and Dewey - Farmer John
TTITLE24=Don and Dewey - Big Boy Pete
TTITLE25=Little Richard - Bama Lama Bama Loo
EXTD=
EXTT0=
EXTT1=
EXTT2=
EXTT3=
EXTT4=
EXTT5=
EXTT6=
EXTT7=
EXTT8=
EXTT9=
EXTT10=
EXTT11=
EXTT12=
EXTT13=
EXTT14=
EXTT15=
EXTT16=
EXTT17=
EXTT18=
EXTT19=
EXTT20=
EXTT21=
EXTT22=
EXTT23=
EXTT24=
EXTT25=
PLAYORDER=
